<?xml version="1.0" standalone="no"?>
<!DOCTYPE svg PUBLIC "-//W3C//DTD SVG 20010904//EN"
 "http://www.w3.org/TR/2001/REC-SVG-20010904/DTD/svg10.dtd">
<svg version="1.0" xmlns="http://www.w3.org/2000/svg"
 width="16.000000pt" height="16.000000pt" viewBox="0 0 16.000000 16.000000"
 preserveAspectRatio="xMidYMid meet">
<metadata>
Created by potrace 1.11, written by Peter Selinger 2001-2013
</metadata>
<g transform="translate(0.000000,16.000000) scale(0.003670,-0.003670)"
fill="#000000" stroke="none">
<path d="M1975 2894 c-571 -29 -910 -81 -1250 -191 -385 -124 -589 -283 -588
-458 0 -74 19 -120 75 -181 77 -84 167 -142 323 -210 l100 -44 -310 -2 -310
-3 0 -170 0 -170 2155 0 2155 0 0 170 0 170 -295 5 c-162 3 -288 7 -280 8 29
4 227 99 276 132 27 18 77 60 112 94 130 127 135 257 15 387 -208 224 -783
397 -1498 448 -156 12 -572 21 -680 15z m685 -59 c854 -73 1440 -278 1525
-534 21 -64 10 -120 -35 -186 -60 -87 -248 -199 -448 -269 l-104 -36 -688 0
-688 0 230 368 c127 202 232 372 234 377 3 10 -78 65 -96 65 -4 0 -86 -125
-180 -277 -95 -153 -178 -284 -185 -291 -9 -11 -47 43 -185 265 -95 153 -179
286 -185 295 -10 16 -16 14 -63 -17 l-51 -35 233 -372 234 -373 -719 -3 -719
-2 -118 43 c-221 80 -403 201 -451 301 -42 86 -17 190 66 267 214 201 750 356
1431 413 222 19 745 19 962 1z"/>
<path d="M1570 2769 c-329 -31 -587 -79 -832 -155 -46 -14 -92 -29 -103 -34
-187 -83 -253 -121 -312 -178 -107 -103 -116 -207 -28 -310 28 -34 160 -132
177 -132 5 0 -1 19 -13 41 -29 58 -20 97 39 156 51 52 192 129 218 119 8 -3
13 -2 10 3 -3 4 13 14 34 21 30 10 40 19 40 34 1 33 43 129 76 170 35 45 119
100 135 90 7 -4 9 -3 6 3 -3 5 10 16 31 23 51 18 701 27 712 10 5 -8 20 -4 50
15 23 15 45 23 49 18 23 -27 61 -83 61 -88 0 -4 9 -20 21 -36 l20 -29 212 5
c117 3 235 8 264 11 l51 5 42 70 c23 38 45 69 49 69 18 0 151 -93 151 -106 0
-10 14 -6 53 15 87 50 157 61 397 61 142 0 209 4 199 10 -23 14 -340 76 -479
94 -376 51 -953 61 -1330 25z"/>
<path d="M1136 2599 c-141 -16 -238 -89 -287 -217 -20 -52 -22 -76 -23 -292
l-1 -235 60 0 60 0 3 158 3 157 389 0 390 0 -2 218 -3 217 -260 1 c-143 1
-291 -2 -329 -7z m474 -214 l0 -95 -326 0 -327 0 7 43 c12 76 63 125 147 137
30 4 154 8 277 9 l222 1 0 -95z"/>
<path d="M1136 2439 c-62 -10 -103 -27 -110 -45 -7 -18 2 -18 73 0 31 8 92 20
136 27 44 6 87 16 95 20 19 11 -128 9 -194 -2z"/>
<path d="M2958 2600 c-128 -15 -223 -77 -274 -177 l-29 -58 -3 -259 -3 -258
303 5 c321 5 369 11 444 57 52 33 73 58 101 120 24 53 52 176 53 233 l0 27
-260 0 -260 0 0 -60 0 -60 191 0 191 0 -7 -37 c-15 -83 -56 -125 -136 -142
-27 -6 -151 -11 -275 -11 l-226 0 4 183 c3 165 6 186 26 224 15 28 37 50 65
65 41 22 52 23 365 26 l323 3 -3 62 -3 62 -260 1 c-143 1 -290 -2 -327 -6z"/>
<path d="M3580 2535 c0 -36 5 -57 13 -60 6 -2 59 -11 117 -20 58 -8 121 -18
140 -21 l35 -5 -30 25 c-36 31 -140 87 -215 115 -30 12 -56 21 -57 21 -2 0 -3
-25 -3 -55z"/>
</g>
</svg>
